<?xml version="1.0" standalone="no"?>
<!DOCTYPE svg PUBLIC "-//W3C//DTD SVG 20010904//EN"
 "http://www.w3.org/TR/2001/REC-SVG-20010904/DTD/svg10.dtd">
<svg version="1.0" xmlns="http://www.w3.org/2000/svg"
 width="250.000000pt" height="246.000000pt" viewBox="0 0 250.000000 246.000000"
 preserveAspectRatio="xMidYMid meet">

<g transform="translate(0.000000,246.000000) scale(0.100000,-0.100000)"
fill="#000000" stroke="none">
<path d="M373 2348 c-6 -7 -13 -71 -17 -141 -23 -444 -115 -989 -190 -1124
-15 -25 -26 -55 -26 -67 0 -43 91 -106 153 -106 28 0 51 16 153 108 185 167
288 252 295 244 3 -4 14 -28 23 -54 24 -64 64 -93 131 -92 119 2 210 103 235
260 6 38 13 84 16 102 4 27 13 36 56 58 27 14 48 22 46 17 -86 -173 -106 -250
-75 -297 52 -79 195 -15 290 129 l39 60 -6 -55 c-4 -30 -15 -64 -25 -75 -334
-371 -520 -657 -521 -800 0 -91 61 -282 117 -367 67 -101 204 -103 291 -4 50
58 109 166 135 252 33 106 69 324 111 678 38 317 49 352 77 243 33 -135 76
-181 169 -180 100 1 178 62 237 182 39 79 45 210 13 276 -39 81 -111 105 -191
65 -21 -11 -87 -65 -144 -120 -58 -55 -109 -100 -114 -100 -6 0 -7 25 -3 58 4
31 7 75 7 97 0 39 -1 40 -36 43 -29 2 -43 12 -69 43 -39 49 -27 50 -245 -25
l-159 -55 -28 50 c-73 127 -219 118 -321 -21 -26 -36 -65 -86 -87 -112 -22
-25 -40 -54 -40 -64 0 -10 12 -31 28 -47 l27 -29 -40 -35 c-53 -47 -288 -223
-297 -223 -16 0 -7 104 22 276 46 268 117 601 156 734 58 200 48 223 -95 228
-64 3 -90 0 -98 -10z m661 -714 c34 -34 20 -51 -61 -73 -42 -11 -79 -18 -82
-16 -7 8 97 105 113 105 8 0 22 -7 30 -16z m441 -91 c-18 -101 -121 -248 -168
-241 -67 9 3 175 106 249 56 41 71 39 62 -8z m525 -25 c45 -74 18 -215 -52
-273 -65 -55 -113 -12 -124 113 -9 93 3 120 69 159 67 40 83 40 107 1z m-933
-86 c-13 -127 -72 -232 -129 -232 -43 0 -52 23 -52 133 l-1 101 85 27 c47 15
89 28 94 28 5 1 6 -25 3 -57z m394 -415 c-61 -534 -150 -857 -235 -845 -48 7
-93 148 -103 324 -7 119 5 179 54 277 49 99 297 465 301 445 2 -9 -6 -99 -17
-201z"/>
</g>
</svg>
