<?xml version="1.0" standalone="no"?>
<!DOCTYPE svg PUBLIC "-//W3C//DTD SVG 20010904//EN"
 "http://www.w3.org/TR/2001/REC-SVG-20010904/DTD/svg10.dtd">
<svg version="1.0" xmlns="http://www.w3.org/2000/svg"
 width="512.000000pt" height="512.000000pt" viewBox="0 0 512.000000 512.000000"
 preserveAspectRatio="xMidYMid meet">

<g transform="translate(0.000000,512.000000) scale(0.100000,-0.100000)"
fill="#000000" stroke="none">
<path d="M2784 5105 c-204 -44 -366 -208 -410 -414 -21 -99 -21 -1619 0 -1660
35 -66 137 -66 172 0 12 24 14 152 14 801 0 665 2 782 15 833 51 194 244 297
445 236 62 -19 82 -31 130 -79 90 -91 127 -212 74 -247 -48 -31 -107 -90 -151
-149 -34 -46 -43 -67 -43 -99 0 -58 38 -97 96 -97 46 0 53 5 123 96 45 59 110
105 190 135 82 31 223 24 303 -15 185 -89 284 -293 233 -481 -21 -79 -79 -172
-131 -211 -21 -16 -56 -46 -77 -67 -36 -34 -39 -41 -34 -75 7 -44 55 -92 93
-92 56 0 185 98 249 189 15 23 32 41 38 41 5 0 38 -29 72 -64 100 -102 165
-259 165 -401 0 -116 -54 -273 -119 -347 l-31 -36 -43 15 c-87 30 -146 12
-167 -52 -10 -30 -9 -41 7 -72 16 -34 27 -41 113 -73 114 -43 197 -97 272
-178 302 -327 203 -874 -193 -1065 -151 -73 -292 -93 -443 -62 -84 17 -112 12
-145 -31 -54 -68 -11 -140 99 -165 71 -15 243 -19 331 -6 l56 8 -8 -63 c-10
-85 -42 -169 -96 -250 -77 -117 -202 -201 -348 -233 -77 -17 -127 -17 -282 1
-49 6 -54 4 -83 -24 -40 -41 -41 -89 -2 -132 21 -24 42 -34 97 -45 39 -8 80
-15 93 -15 22 0 21 -3 -20 -62 -50 -72 -135 -138 -216 -168 -71 -27 -197 -37
-275 -21 -186 39 -342 196 -377 380 -6 34 -10 346 -10 837 l0 784 -29 32 c-24
27 -36 33 -71 33 -35 0 -47 -6 -71 -33 l-30 -33 3 -827 3 -827 24 -70 c66
-197 182 -332 354 -414 103 -49 179 -65 307 -65 202 -1 341 55 476 189 69 69
90 97 132 185 l51 103 83 31 c287 108 484 387 491 695 l2 88 60 36 c124 73
255 216 322 352 110 222 124 491 36 715 -48 123 -101 200 -210 309 l-104 103
36 54 c194 292 156 692 -92 954 -35 38 -83 81 -106 96 l-42 26 0 121 c0 101
-4 133 -23 188 -88 254 -323 430 -577 432 -49 0 -99 -3 -111 -7 -19 -6 -24 2
-53 81 -95 267 -356 409 -637 348z"/>
<path d="M789 4631 l-29 -29 0 -389 c0 -353 2 -390 18 -409 41 -52 109 -55
153 -8 l24 26 3 366 c2 246 0 379 -8 404 -20 70 -108 91 -161 39z"/>
<path d="M1356 4644 c-35 -11 -66 -32 -106 -72 -84 -86 -92 -119 -88 -379 3
-194 5 -212 27 -260 47 -106 148 -167 271 -167 141 1 241 74 281 206 19 60 20
88 17 265 -4 220 -11 250 -78 327 -72 82 -211 116 -324 80z m153 -199 c47 -24
53 -54 49 -248 -3 -169 -4 -176 -27 -201 -30 -31 -73 -42 -112 -26 -53 22 -59
49 -59 250 l0 182 29 29 c33 33 75 38 120 14z"/>
<path d="M1993 4636 l-28 -24 -3 -383 c-2 -257 1 -392 8 -409 6 -14 24 -34 39
-43 45 -26 79 -21 117 17 l34 34 0 376 c0 401 -2 420 -49 446 -35 18 -88 12
-118 -14z"/>
<path d="M2775 4058 c-35 -19 -55 -52 -55 -92 0 -35 6 -46 50 -87 143 -139
382 -169 571 -73 67 33 145 107 152 142 8 41 -17 89 -56 108 -43 20 -75 14
-119 -25 -78 -68 -199 -98 -293 -72 -36 9 -59 23 -164 93 -30 20 -57 22 -86 6z"/>
<path d="M389 3531 l-29 -29 0 -387 c0 -246 4 -393 10 -406 13 -24 61 -49 94
-49 14 0 40 13 58 29 l33 29 0 392 0 392 -33 29 c-44 40 -93 40 -133 0z"/>
<path d="M980 3551 c-92 -29 -172 -103 -203 -189 -16 -44 -18 -78 -15 -269 3
-214 3 -219 30 -268 57 -107 145 -160 268 -160 140 1 241 75 281 207 19 60 20
88 17 265 -4 227 -12 258 -91 336 -71 71 -197 105 -287 78z m142 -220 l33 -29
0 -192 0 -192 -33 -29 c-18 -16 -44 -29 -58 -29 -37 0 -84 27 -94 56 -6 14
-10 105 -10 202 0 147 3 182 16 200 34 49 99 55 146 13z"/>
<path d="M1774 3549 c-87 -25 -181 -122 -205 -211 -6 -25 -9 -119 -7 -247 3
-190 5 -210 26 -257 49 -108 147 -169 272 -169 126 1 222 62 274 174 19 42 21
63 21 271 l0 225 -28 57 c-63 128 -218 196 -353 157z m135 -203 c45 -24 51
-52 51 -237 0 -142 -3 -176 -17 -199 -38 -66 -134 -65 -169 1 -19 38 -20 363
0 398 26 47 84 63 135 37z"/>
<path d="M3474 3220 c-11 -4 -37 -27 -56 -49 -158 -185 -159 -476 -2 -660 61
-70 133 -78 177 -18 32 42 27 86 -15 138 -54 67 -71 107 -76 184 -5 87 8 139
53 202 59 82 68 107 51 147 -24 57 -75 79 -132 56z"/>
<path d="M2411 2716 c-87 -48 -50 -186 49 -186 33 0 71 23 86 51 23 45 17 78
-20 115 -37 37 -73 43 -115 20z"/>
<path d="M587 2450 c-62 -16 -112 -47 -154 -94 -63 -72 -73 -117 -73 -345 0
-249 8 -281 88 -361 70 -69 141 -96 234 -87 127 11 223 88 259 209 19 61 20
87 16 260 -5 213 -10 241 -66 315 -64 84 -197 130 -304 103z m135 -219 l33
-29 3 -176 c3 -145 1 -181 -13 -209 -30 -63 -107 -77 -156 -28 l-29 29 0 187
c0 108 4 194 10 205 14 25 58 49 92 50 17 0 41 -12 60 -29z"/>
<path d="M1211 2446 c-49 -27 -50 -34 -51 -444 l0 -384 29 -29 c33 -33 75 -38
120 -14 50 26 52 40 49 449 l-3 378 -33 29 c-35 32 -72 37 -111 15z"/>
<path d="M1763 2442 c-67 -24 -118 -64 -154 -121 -46 -72 -51 -106 -47 -335 3
-198 5 -214 27 -256 32 -61 76 -107 136 -138 42 -22 63 -27 130 -27 133 1 225
58 279 174 19 43 21 62 21 271 0 257 -6 281 -85 360 -80 80 -203 109 -307 72z
m163 -216 l34 -34 0 -176 c0 -197 -7 -224 -59 -246 -47 -19 -98 -5 -121 33
-18 28 -20 51 -20 204 0 184 5 209 48 236 43 27 80 21 118 -17z"/>
<path d="M3253 1856 c-107 -34 -204 -122 -256 -234 -60 -127 -47 -311 23 -347
43 -22 76 -18 112 14 l33 29 -3 90 c-5 137 33 203 145 253 34 16 69 39 77 51
25 35 20 83 -11 117 -34 37 -66 44 -120 27z"/>
<path d="M977 1346 c-95 -26 -182 -114 -208 -208 -6 -25 -9 -121 -7 -252 3
-238 11 -268 83 -341 60 -59 115 -80 215 -80 73 0 92 4 136 27 59 31 108 84
138 147 19 42 21 63 21 271 0 215 -1 227 -23 272 -66 133 -218 203 -355 164z
m153 -221 c24 -25 25 -29 28 -197 2 -94 1 -182 -3 -195 -18 -73 -112 -97 -166
-44 l-29 29 0 181 c0 199 6 226 55 247 39 18 84 10 115 -21z"/>
<path d="M1608 1343 c-14 -9 -31 -27 -37 -40 -7 -16 -11 -154 -11 -404 l0
-381 29 -29 c51 -50 133 -36 160 29 8 20 11 133 9 405 l-3 377 -26 25 c-33 33
-85 41 -121 18z"/>
<path d="M2024 1351 c-12 -5 -31 -22 -43 -37 -22 -27 -22 -30 -19 -417 l3
-389 28 -24 c30 -26 83 -32 118 -14 47 26 49 45 49 444 l0 376 -27 30 c-30 32
-75 45 -109 31z"/>
</g>
</svg>
