<?xml version="1.0" standalone="no"?>
<!DOCTYPE svg PUBLIC "-//W3C//DTD SVG 20010904//EN"
 "http://www.w3.org/TR/2001/REC-SVG-20010904/DTD/svg10.dtd">
<svg version="1.0" xmlns="http://www.w3.org/2000/svg"
 width="512.000000pt" height="512.000000pt" viewBox="0 0 512.000000 512.000000"
 preserveAspectRatio="xMidYMid meet">

<g transform="translate(0.000000,512.000000) scale(0.100000,-0.100000)"
fill="#000000" stroke="none">
<path d="M748 4620 c-110 -11 -162 -37 -195 -99 -22 -42 -23 -54 -23 -248 l0
-203 -195 0 c-213 0 -239 -5 -287 -56 -15 -16 -32 -42 -37 -57 -15 -40 -15
-3314 0 -3354 22 -60 95 -113 155 -113 15 0 82 16 149 35 247 71 539 127 805
156 146 16 564 16 695 0 221 -27 436 -80 617 -152 54 -21 112 -39 128 -39 16
0 74 18 128 39 294 118 576 165 967 165 376 -1 769 -58 1145 -168 121 -35 152
-39 196 -27 44 12 97 61 113 104 8 20 11 539 11 1678 0 1795 4 1685 -56 1741
-47 43 -73 48 -280 48 l-194 0 0 203 c0 194 -1 206 -23 248 -36 68 -81 88
-229 101 -159 14 -428 4 -593 -21 -466 -71 -831 -248 -1099 -533 l-86 -91 -86
91 c-267 285 -631 461 -1099 533 -147 23 -483 33 -627 19z m387 -340 c554 -39
963 -239 1204 -589 l51 -75 0 -1228 c0 -675 -2 -1228 -5 -1228 -3 0 -32 22
-63 48 -193 160 -475 291 -764 356 -154 34 -310 53 -515 61 l-173 7 0 1323 0
1324 28 4 c48 7 104 7 237 -3z m3088 0 l27 0 0 -1323 0 -1324 -162 -7 c-209
-9 -323 -21 -478 -52 -306 -61 -609 -198 -812 -366 -31 -26 -60 -48 -63 -48
-3 0 -5 552 -5 1228 l0 1227 38 56 c182 273 464 459 837 553 143 36 434 68
540 60 28 -2 62 -4 78 -4z m-3691 -1723 l3 -1173 25 -37 c13 -20 41 -45 61
-56 34 -19 47 -20 265 -14 185 4 255 2 364 -12 245 -31 405 -74 575 -154 115
-55 214 -115 175 -107 -178 36 -729 44 -980 13 -189 -23 -349 -51 -518 -88
-76 -17 -141 -32 -147 -32 -10 -2 -20 2794 -10 2821 3 8 32 12 95 12 l90 0 2
-1173z m4243 -247 c0 -938 -3 -1414 -10 -1413 -5 0 -71 15 -147 32 -169 37
-329 65 -518 88 -250 31 -797 23 -980 -13 -65 -13 177 116 300 160 123 45 253
75 419 97 136 19 186 21 390 16 223 -6 236 -5 270 14 20 11 48 36 61 56 l25
37 3 1173 2 1174 93 -3 92 -3 0 -1415z"/>
</g>
</svg>
