<?xml version="1.0" standalone="no"?>
<!DOCTYPE svg PUBLIC "-//W3C//DTD SVG 20010904//EN"
 "http://www.w3.org/TR/2001/REC-SVG-20010904/DTD/svg10.dtd">
<svg version="1.0" xmlns="http://www.w3.org/2000/svg"
 width="512.000000pt" height="512.000000pt" viewBox="0 0 512.000000 512.000000"
 preserveAspectRatio="xMidYMid meet">

<g transform="translate(0.000000,512.000000) scale(0.100000,-0.100000)"
fill="#000000" stroke="none">
<path d="M3782 4941 c-98 -27 -153 -53 -226 -105 -33 -25 -685 -669 -1448
-1433 l-1386 -1388 -281 -851 c-155 -468 -281 -862 -281 -875 0 -58 68 -129
125 -129 10 0 404 128 875 285 l855 285 1411 1412 c1538 1539 1453 1448 1506
1618 35 114 32 274 -7 389 -46 136 -98 202 -356 456 -247 243 -292 277 -421
322 -102 36 -262 42 -366 14z m300 -271 c74 -28 129 -74 339 -287 237 -239
269 -290 270 -436 1 -133 -37 -210 -171 -342 l-80 -80 -461 460 -460 460 89
86 c49 47 111 98 138 113 99 56 230 66 336 26z m-289 -878 l457 -457 -1150
-1150 -1150 -1150 -460 460 -460 460 1147 1147 c632 632 1150 1148 1153 1148
3 0 211 -206 463 -458z m-2097 -2889 c-6 -6 -1171 -393 -1183 -393 -7 0 68
238 183 583 107 320 196 589 199 596 4 10 136 -115 405 -384 220 -220 398
-401 396 -402z"/>
</g>
</svg>
